<?xml version="1.0" standalone="no"?>
<!DOCTYPE svg PUBLIC "-//W3C//DTD SVG 20010904//EN"
 "http://www.w3.org/TR/2001/REC-SVG-20010904/DTD/svg10.dtd">
<svg version="1.0" xmlns="http://www.w3.org/2000/svg"
 width="16.000000pt" height="16.000000pt" viewBox="0 0 16.000000 16.000000"
 preserveAspectRatio="xMidYMid meet">
<metadata>
Created by potrace 1.11, written by Peter Selinger 2001-2013
</metadata>
<g transform="translate(0.000000,16.000000) scale(0.004469,-0.004469)"
fill="#000000" stroke="none">
<path d="M1963 3390 c-14 -6 -24 -21 -28 -42 -3 -18 -5 -333 -3 -700 3 -625 4
-668 21 -685 17 -17 56 -18 705 -15 378 2 694 8 703 13 26 13 29 61 29 460 0
356 -1 378 -19 400 -17 21 -23 23 -49 13 -25 -10 -32 -9 -36 3 -9 21 -10 18
43 77 60 67 64 85 59 300 -3 142 -5 159 -22 172 -17 12 -128 14 -700 13 -375
0 -691 -4 -703 -9z m1257 -695 c0 -33 -130 -91 -219 -97 -87 -7 -15 53 76 63
37 4 72 14 89 26 30 22 54 26 54 8z"/>
<path d="M1109 3227 c-25 -22 -26 -29 -32 -159 l-6 -136 30 -41 29 -41 148 0
c167 0 185 6 201 68 6 20 9 93 7 161 l-2 125 -38 19 c-31 16 -63 20 -174 23
-131 3 -138 2 -163 -19z"/>
<path d="M896 2734 c-10 -25 -6 -747 3 -763 24 -39 88 31 150 164 26 55 52 93
84 123 42 37 52 42 96 42 44 0 52 4 84 39 19 21 40 41 46 45 19 12 12 -23 -9
-44 -11 -11 -20 -25 -20 -31 0 -7 -34 -44 -76 -84 l-75 -73 3 -63 3 -63 55
-33 55 -32 190 2 190 2 0 390 0 390 -386 3 c-351 2 -387 1 -393 -14z"/>
<path d="M270 1777 l-25 -13 -3 -270 -2 -270 24 -23 c17 -16 55 -29 137 -45
144 -29 177 -53 188 -136 8 -63 4 -93 -12 -87 -13 4 -20 18 -42 79 -14 40 -22
49 -58 63 -87 33 -181 -5 -226 -92 -7 -15 -11 -118 -11 -317 0 -254 2 -297 16
-310 8 -9 23 -16 32 -16 387 -5 1378 3 1388 11 20 16 26 74 18 176 -8 111 -18
125 -98 143 -58 13 -97 38 -173 107 -19 17 -32 36 -29 41 8 13 75 -1 129 -27
l46 -22 45 19 c82 37 80 25 80 521 1 406 0 436 -17 458 l-18 23 -682 0 c-530
0 -688 -3 -707 -13z m1086 -914 c-4 -4 -11 -1 -16 7 -16 25 -11 35 7 17 9 -9
13 -20 9 -24z m24 -23 c0 -5 -2 -10 -4 -10 -3 0 -8 5 -11 10 -3 6 -1 10 4 10
6 0 11 -4 11 -10z"/>
<path d="M1956 1771 c-7 -11 -9 -762 -1 -769 8 -9 759 -2 768 7 4 4 7 43 5 87
l-3 78 -45 14 c-25 7 -58 14 -75 13 -16 0 -38 8 -48 17 -11 9 -22 16 -26 14
-3 -2 -7 4 -9 12 -3 12 3 13 25 8 37 -9 121 -8 156 1 l27 7 0 254 0 253 -46 7
c-71 9 -722 7 -728 -3z"/>
<path d="M2305 921 c-95 -5 -127 -10 -154 -26 l-33 -20 6 -150 c6 -161 17
-220 44 -233 9 -4 86 -7 169 -6 160 2 208 11 218 45 3 10 7 85 8 167 1 109 -2
156 -11 174 -16 29 -72 59 -105 56 -12 -1 -76 -4 -142 -7z"/>
</g>
</svg>
